<?xml version="1.0" encoding="utf-8"?>
<!-- Generator: Adobe Illustrator 23.0.1, SVG Export Plug-In . SVG Version: 6.00 Build 0)  -->
<svg version="1.1" id="Layer_1" xmlns="http://www.w3.org/2000/svg" xmlns:xlink="http://www.w3.org/1999/xlink" x="0px" y="0px"
	 viewBox="0 0 305.6 363.8" style="enable-background:new 0 0 305.6 363.8;" xml:space="preserve">
<style type="text/css">
	.st0{fill:#FFFFFF;stroke:#000000;stroke-width:4;stroke-miterlimit:10;}
	.st1{fill:#FFFFFF;stroke:#000000;stroke-width:3;stroke-miterlimit:10;}
	.st2{fill:#FFFFFF;stroke:#000000;stroke-width:2;stroke-miterlimit:10;}
</style>
<path id="body" class="st0" d="M188.3,230.3c0-34.3-29.5-62.1-65.9-62.1c-34.3,0-62.5,24.7-65.6,56.2C24.7,232.3,1,259.7,1,292.4
	c0,38.8,33.4,70.3,74.6,70.3c41.2,0,74.6-31.5,74.6-70.3c0-1.9-0.1-3.8-0.3-5.7C172.6,276.8,188.3,255.3,188.3,230.3z"/>
<rect id="bridge" x="205.8" y="25.8" transform="matrix(0.7854 0.6189 -0.6189 0.7854 115.9835 -108.758)" class="st1" width="18.2" height="174.2"/>
<rect id="strap_3" x="70.7" y="253.4" transform="matrix(0.7854 0.6189 -0.6189 0.7854 182.6043 -7.2324)" class="st2" width="62.1" height="12.7"/>
<circle id="mixer_2" class="st2" cx="116.4" cy="330.6" r="3.5"/>
<circle id="mixer_1" class="st2" cx="132.2" cy="310.1" r="3.5"/>
<rect id="strap_2" x="97.8" y="230.4" transform="matrix(0.7854 0.6189 -0.6189 0.7854 172.2542 -23.3907)" class="st2" width="44.1" height="12.7"/>
<rect id="strap_1" x="122.1" y="212.5" transform="matrix(0.7854 0.6189 -0.6189 0.7854 163.248 -37.4509)" class="st2" width="27.2" height="8.4"/>
<rect id="twister_4" x="249.1" y="26.3" transform="matrix(0.6189 -0.7854 0.7854 0.6189 71.2314 209.9563)" class="st2" width="5.8" height="10.5"/>
<rect id="twister_3" x="255.9" y="17.7" transform="matrix(0.6189 -0.7854 0.7854 0.6189 80.5614 212.0005)" class="st2" width="5.8" height="10.5"/>
<rect id="twister_2" x="261.8" y="10.2" transform="matrix(0.6189 -0.7854 0.7854 0.6189 88.7433 213.7933)" class="st2" width="5.8" height="10.5"/>
<rect id="twister_1" x="268.5" y="1.7" transform="matrix(0.6189 -0.7854 0.7854 0.6189 97.9606 215.8128)" class="st2" width="5.8" height="10.5"/>
<path id="head" class="st1" d="M262.9,59.9l-7.8-6.1c-5.2-4.1-6.1-11.7-2-16.9l22.3-28.3c4.1-5.2,11.7-6.1,16.9-2l7.8,6.1
	c5.2,4.1,6.1,11.7,2,16.9l-22.3,28.3C275.7,63.1,268.1,64,262.9,59.9z"/>
<circle id="button_1" class="st2" cx="260.1" cy="40.8" r="3.5"/>
<circle id="button_2" class="st2" cx="269.4" cy="29.7" r="3.5"/>
<circle id="button_3" class="st2" cx="277.6" cy="18.1" r="3.5"/>
</svg>
