<svg id="Layer_1" data-name="Layer 1" xmlns="http://www.w3.org/2000/svg" viewBox="0 0 307.14 364.76"><defs><style>.cls-1{fill:#a87b48;stroke-width:4px;}.cls-1,.cls-2,.cls-3,.cls-4,.cls-5,.cls-6,.cls-7{stroke:#231f20;stroke-miterlimit:10;}.cls-2{fill:#674a32;}.cls-2,.cls-6{stroke-width:3px;}.cls-3{fill:#d3d2cd;}.cls-3,.cls-4,.cls-5,.cls-7{stroke-width:2px;}.cls-4{fill:#fff;}.cls-5{fill:#d3d1cd;}.cls-7{fill:#725538;}</style></defs><title>bass</title><path id="body" class="cls-1" d="M188.28,230.29c0-34.32-29.52-62.14-65.94-62.14-34.3,0-62.47,24.69-65.63,56.23-32,7.89-55.71,35.36-55.71,68,0,38.85,33.42,70.34,74.64,70.34s74.64-31.49,74.64-70.34c0-1.93-.1-3.84-.27-5.73C172.61,276.83,188.28,255.29,188.28,230.29Z" transform="translate(1)"/><rect id="bridge" class="cls-2" x="205.76" y="25.83" width="18.2" height="174.15" transform="translate(116.98 -108.76) rotate(38.24)"/><rect id="strap_3" data-name="strap 3" class="cls-3" x="35.28" y="296.62" width="62.11" height="12.66" transform="translate(202.74 23.95) rotate(38.24)"/><circle id="mixer_2" data-name="mixer 2" class="cls-4" cx="117.41" cy="330.6" r="3.46"/><circle id="mixer_1" data-name="mixer 1" class="cls-4" cx="133.18" cy="310.13" r="3.46"/><rect id="twister_4" data-name="twister 4" class="cls-5" x="249.1" y="26.29" width="5.8" height="10.55" transform="translate(72.23 209.96) rotate(-51.76)"/><rect id="twister_3" data-name="twister 3" class="cls-3" x="255.87" y="17.7" width="5.8" height="10.55" transform="translate(81.56 212) rotate(-51.76)"/><rect id="twister_2" data-name="twister 2" class="cls-3" x="261.81" y="10.16" width="5.8" height="10.55" transform="translate(89.74 213.79) rotate(-51.76)"/><rect id="twister_1" data-name="twister 1" class="cls-3" x="268.5" y="1.67" width="5.8" height="10.55" transform="translate(98.96 215.81) rotate(-51.76)"/><rect id="head" class="cls-6" x="260.67" y="3.23" width="33.89" height="60.08" rx="12" transform="translate(81.16 -164.69) rotate(38.24)"/><circle id="button_1" data-name="button 1" class="cls-3" cx="261.12" cy="40.75" r="3.46"/><circle id="button_2" data-name="button 2" class="cls-3" cx="270.42" cy="29.71" r="3.46"/><circle id="button_3" data-name="button 3" class="cls-3" cx="278.61" cy="18.07" r="3.46"/><circle class="cls-7" cx="127.63" cy="224.86" r="24.3"/></svg>