<?xml version="1.0" encoding="utf-8"?>
<!-- Generator: Adobe Illustrator 23.0.1, SVG Export Plug-In . SVG Version: 6.00 Build 0)  -->
<svg version="1.1" id="horn" xmlns="http://www.w3.org/2000/svg" xmlns:xlink="http://www.w3.org/1999/xlink" x="0px" y="0px"
	 viewBox="0 0 250.9 273" style="enable-background:new 0 0 250.9 273;" xml:space="preserve">
<style type="text/css">
	.st0{fill:#FFFFFF;}
</style>
<path id="body" d="M249.2,27.8L234,14.5L218.7,1.2c-3.1-2.7-8.1-0.7-9.1,3.5l-4.9,21l-0.6,2.6c-0.2,0.8-0.5,1.5-1.1,2L1.2,254.5
	c-1.7,1.9-1.6,4.8,0.3,6.5l11.9,10.7c1.9,1.7,4.8,1.6,6.5-0.3L221.6,47.5c0.5-0.5,1.1-1,1.8-1.2l3.4-1.3l20.2-7.8
	C251,35.7,252.2,30.4,249.2,27.8z"/>
<circle id="hole_5" class="st0" cx="57.6" cy="210" r="4.9"/>
<circle id="hole_4" class="st0" cx="84.7" cy="179.9" r="4.9"/>
<circle id="hole_3" class="st0" cx="109.8" cy="151" r="4.9"/>
<circle id="hole_2" class="st0" cx="135.2" cy="123.5" r="4.9"/>
<circle id="hole_6" class="st0" cx="157" cy="100.2" r="4.9"/>
<rect id="white_x5F_strip" x="11.2" y="246.4" transform="matrix(0.6723 -0.7403 0.7403 0.6723 -186.4175 95.6469)" class="st0" width="7.3" height="24"/>
<circle id="hole_1_1_" class="st0" cx="176.4" cy="80.4" r="4.9"/>
</svg>
