<svg id="horn" xmlns="http://www.w3.org/2000/svg" viewBox="0 0 254.88 276.97"><defs><style>.cls-1{fill:#f4c815;stroke:#030202;stroke-width:4px;}.cls-1,.cls-2,.cls-3,.cls-4{stroke-miterlimit:10;}.cls-2,.cls-3{fill:#fff;}.cls-2{stroke:#0c0508;}.cls-3,.cls-4{stroke:#000;}.cls-4{fill:#f9f9fa;}</style></defs><title>horn</title><path id="body" class="cls-1" d="M249.18,27.78,234,14.5,218.73,1.22c-3-2.66-8.1-.72-9.09,3.49l-4.94,21-.6,2.56a4.67,4.67,0,0,1-1.07,2L1.19,254.5A4.63,4.63,0,0,0,1.53,261l11.93,10.74a4.64,4.64,0,0,0,6.55-.34l201.6-223.9a4.65,4.65,0,0,1,1.78-1.22l3.4-1.31L247,37.26C251,35.71,252.23,30.44,249.18,27.78Z" transform="translate(2 2)"/><circle id="hole_5" data-name="hole 5" class="cls-2" cx="59.61" cy="211.95" r="4.94"/><circle id="hole_4" data-name="hole 4" class="cls-3" cx="86.7" cy="181.9" r="4.94"/><circle id="hole_3" data-name="hole 3" class="cls-4" cx="111.83" cy="153.01" r="4.94"/><circle id="hole_2" data-name="hole 2" class="cls-3" cx="137.15" cy="125.53" r="4.94"/><circle id="hole_6" data-name="hole 6" class="cls-3" cx="158.97" cy="102.21" r="4.94"/><rect id="white_strip" class="cls-3" x="11.16" y="246.39" width="7.32" height="23.96" transform="translate(-184.42 97.65) rotate(-47.76)"/><circle id="hole_1" data-name="hole 1" class="cls-3" cx="178.43" cy="82.41" r="4.94"/></svg>