<?xml version="1.0" encoding="utf-8"?>
<!-- Generator: Adobe Illustrator 23.0.1, SVG Export Plug-In . SVG Version: 6.00 Build 0)  -->
<svg version="1.1" id="keyboard" xmlns="http://www.w3.org/2000/svg" xmlns:xlink="http://www.w3.org/1999/xlink" x="0px" y="0px"
	 viewBox="0 0 172.7 82.1" style="enable-background:new 0 0 172.7 82.1;" xml:space="preserve">
<style type="text/css">
	.st0{fill:#FFFFFF;stroke:#000000;stroke-width:3;stroke-miterlimit:10;}
	.st1{fill:none;stroke:#000000;stroke-miterlimit:10;}
	.st2{fill:#FFFFFF;stroke:#000000;stroke-miterlimit:10;}
</style>
<path id="body" class="st0" d="M159.2,80.6H13.5c-6.6,0-12-5.4-12-12V13.5c0-6.6,5.4-12,12-12h145.7c6.6,0,12,5.4,12,12v55.1
	C171.2,75.2,165.8,80.6,159.2,80.6z"/>
<path id="key_9" d="M16.6,56.9L16.6,56.9c-1.7,0-3.2-1.4-3.2-3.2V28c0-1.7,1.4-3.2,3.2-3.2h0c1.7,0,3.2,1.4,3.2,3.2v25.7
	C19.8,55.5,18.4,56.9,16.6,56.9z"/>
<path id="key_8" d="M33.2,56.9L33.2,56.9c-1.7,0-3.2-1.4-3.2-3.2V28c0-1.7,1.4-3.2,3.2-3.2h0c1.7,0,3.2,1.4,3.2,3.2v25.7
	C36.4,55.5,34.9,56.9,33.2,56.9z"/>
<path id="key_7" d="M47.8,56.9L47.8,56.9c-1.7,0-3.2-1.4-3.2-3.2V28c0-1.7,1.4-3.2,3.2-3.2h0c1.7,0,3.2,1.4,3.2,3.2v25.7
	C51,55.5,49.5,56.9,47.8,56.9z"/>
<path id="key_6" d="M65.8,56.9L65.8,56.9c-1.7,0-3.2-1.4-3.2-3.2V28c0-1.7,1.4-3.2,3.2-3.2h0c1.7,0,3.2,1.4,3.2,3.2v25.7
	C69,55.5,67.6,56.9,65.8,56.9z"/>
<path id="key_5" d="M84.8,56.9L84.8,56.9c-1.7,0-3.2-1.4-3.2-3.2V28c0-1.7,1.4-3.2,3.2-3.2h0c1.7,0,3.2,1.4,3.2,3.2v25.7
	C88,55.5,86.6,56.9,84.8,56.9z"/>
<path id="key_4" d="M101.4,56.9L101.4,56.9c-1.7,0-3.2-1.4-3.2-3.2V28c0-1.7,1.4-3.2,3.2-3.2h0c1.7,0,3.2,1.4,3.2,3.2v25.7
	C104.6,55.5,103.2,56.9,101.4,56.9z"/>
<path id="key_3" d="M118.2,56.9L118.2,56.9c-1.7,0-3.2-1.4-3.2-3.2V28c0-1.7,1.4-3.2,3.2-3.2h0c1.7,0,3.2,1.4,3.2,3.2v25.7
	C121.4,55.5,120,56.9,118.2,56.9z"/>
<path id="key_2" d="M133.3,56.9L133.3,56.9c-1.7,0-3.2-1.4-3.2-3.2V28c0-1.7,1.4-3.2,3.2-3.2l0,0c1.7,0,3.2,1.4,3.2,3.2v25.7
	C136.4,55.5,135,56.9,133.3,56.9z"/>
<path id="key_1" d="M149.5,56.9L149.5,56.9c-1.7,0-3.2-1.4-3.2-3.2V28c0-1.7,1.4-3.2,3.2-3.2l0,0c1.7,0,3.2,1.4,3.2,3.2v25.7
	C152.7,55.5,151.3,56.9,149.5,56.9z"/>
<line id="top_half" class="st0" x1="1.5" y1="25.6" x2="171.2" y2="25.6"/>
<circle id="button_6" class="st1" cx="19.7" cy="13.3" r="3.1"/>
<circle id="button_5" class="st1" cx="36.4" cy="13.3" r="3.1"/>
<line id="mixer_x5F_string" class="st0" x1="84.8" y1="5.2" x2="84.8" y2="21"/>
<rect id="mixer" x="83.2" y="9.2" transform="matrix(6.123234e-17 -1 1 6.123234e-17 71.5461 98.0845)" class="st2" width="3.2" height="8.1"/>
<circle id="button_4" class="st1" cx="53.8" cy="13.1" r="3.1"/>
<circle id="button_3" class="st1" cx="111.5" cy="13.3" r="3.1"/>
<circle id="button_2" class="st1" cx="129.2" cy="13.3" r="3.1"/>
<circle id="button_1" class="st1" cx="148.3" cy="13.3" r="3.1"/>
</svg>
