<svg id="keyboard" xmlns="http://www.w3.org/2000/svg" viewBox="0 0 172.71 82.12"><defs><style>.kBcls-1{fill:#fff;stroke-width:3px;}.kBcls-1,.kBcls-4{stroke:#231f20;}.kBcls-1,.kBcls-2,.kBcls-3,.kBcls-4,.kBcls-5,.kBcls-6,.kBcls-7,.kBcls-8{stroke-miterlimit:10;}.kBcls-2{fill:#327338;}.kBcls-2,.kBcls-3,.kBcls-5,.kBcls-6,.kBcls-7,.kBcls-8{stroke:#000;}.kBcls-3{fill:#f6d30c;}.kBcls-4{fill:#55b247;}.kBcls-5{fill:#3c8ac9;}.kBcls-6{fill:#c11f4d;}.kBcls-7{fill:#db9127;}.kBcls-8{fill:#6d256f;}</style></defs><title>keyboard</title><rect id="body" class="kBcls-1" x="1.5" y="1.5" width="169.71" height="79.12" rx="12"/><rect id="key_9" data-name="key 9" x="13.46" y="24.84" width="6.33" height="32.04" rx="3.16"/><rect id="key_8" data-name="key 8" x="30.04" y="24.84" width="6.33" height="32.04" rx="3.16"/><rect id="key_7" data-name="key 7" x="44.64" y="24.84" width="6.33" height="32.04" rx="3.16"/><rect id="key_6" data-name="key 6" x="62.65" y="24.84" width="6.33" height="32.04" rx="3.16"/><rect id="key_5" data-name="key 5" x="81.65" y="24.84" width="6.33" height="32.04" rx="3.16"/><rect id="key_4" data-name="key 4" x="98.27" y="24.84" width="6.33" height="32.04" rx="3.16"/><rect id="key_3" data-name="key 3" x="115.06" y="24.84" width="6.33" height="32.04" rx="3.16"/><rect id="key_2" data-name="key 2" x="130.09" y="24.84" width="6.33" height="32.04" rx="3.16"/><rect id="key_1" data-name="key 1" x="146.36" y="24.84" width="6.33" height="32.04" rx="3.16"/><line id="top_half" data-name="top half" class="kBcls-1" x1="1.5" y1="25.63" x2="171.21" y2="25.63"/><circle id="button_6" data-name="button 6" class="kBcls-2" cx="19.69" cy="13.27" r="3.07"/><circle id="button_5" data-name="button 5" class="kBcls-3" cx="36.36" cy="13.27" r="3.07"/><line id="mixer_string" class="kBcls-1" x1="84.82" y1="5.19" x2="84.82" y2="21.02"/><rect id="mixer" class="kBcls-4" x="83.23" y="9.21" width="3.16" height="8.11" transform="translate(71.55 98.08) rotate(-90)"/><circle id="button_4" data-name="button 4" class="kBcls-5" cx="53.79" cy="13.1" r="3.07"/><circle id="button_3" data-name="button 3" class="kBcls-6" cx="111.51" cy="13.27" r="3.07"/><circle id="button_2" data-name="button 2" class="kBcls-7" cx="129.24" cy="13.27" r="3.07"/><circle id="button_1" data-name="button 1" class="kBcls-8" cx="148.35" cy="13.27" r="3.07"/></svg>