<?xml version="1.0" encoding="utf-8"?>
<!-- Generator: Adobe Illustrator 16.0.0, SVG Export Plug-In . SVG Version: 6.00 Build 0)  -->
<!DOCTYPE svg PUBLIC "-//W3C//DTD SVG 1.1//EN" "http://www.w3.org/Graphics/SVG/1.1/DTD/svg11.dtd">
<svg version="1.1" id="Layer_1" xmlns="http://www.w3.org/2000/svg" xmlns:xlink="http://www.w3.org/1999/xlink" x="0px" y="0px"
	 width="864px" height="864px" viewBox="0 0 864 864" enable-background="new 0 0 864 864" xml:space="preserve">
	 <defs><style>path{fill: white;}</style></defs>
<g>
	<path fill-rule="evenodd" clip-rule="evenodd" d="M440.355,404c-5.828-38.14-6.562-72.051,28.765-105.047
		c55.979-52.299,88.254-119.949,80.361-200.666c-4.814-49.242-37.658-80.502-81.107-77.553
		c-33.447,2.266-66.365,25.748-72.121,66.25c-7.689,54.094-8.559,109.803-5.783,164.484c1.566,30.738-2.896,50.207-29.979,67.592
		c-24.322,15.607-46.918,36.287-64.84,59.02c-6.691,8.487-12.68,17.131-17.942,25.92H59.764v19h708v-19H440.355z M434.962,116.512
		c9.033-18.979,24.207-36.123,44.027-25.496c12.943,6.936,24.838,29.525,24.59,44.91c-0.861,53.457-32.365,91.535-76.482,127.699
		C423.787,210.961,412.74,163.209,434.962,116.512z M399.97,372.395c1.054,11.056,3.333,21.619,3.622,31.605h-56.668
		C361.577,391.323,379.342,380.589,399.97,372.395z"/>
	<path fill-rule="evenodd" clip-rule="evenodd" d="M60,501.64h190.662c-1.2,27.322,4.191,55.502,16.807,84.252
		c28.492,64.941,84.02,87.686,151.504,87.689c1.945,0.002,3.891,1.881,5.844,2.875c15.109,67.676,12.056,85.371-19.553,104.688
		c-1.838-6.738-3.793-12.939-5.199-19.281c-5.783-26.041-23.582-37.842-48.58-38.713c-25.195-0.883-40.586,14.09-45.975,37.168
		c-5.93,25.406,5.746,44.766,28.777,55.338c32.863,15.074,66.092,13.809,97.488-4.682c31.076-18.305,39.373-47.859,37.085-81.627
		c-1.287-18.961-3.256-37.875-5.062-58.406c82.34-21.875,116.59-61.197,113.52-126.193c-0.758-16.048-4.32-30.42-10.563-43.107H768
		v-19H60V501.64z M303.328,552.202c-4.353-17.302-5.467-34.296-3.592-50.562h43.329c-4.746,19.841-1.481,43.216,9.277,67.916
		c2.857-26.745,8.953-51.134,29.786-67.916h29.335c4.309,47.063,8.276,90.382,12.234,133.59
		C362.011,642.515,318.132,611.058,303.328,552.202z M521.194,567.411c-1.115,33.227-20.945,54.99-61.449,63.914
		c-3.804-42.596-7.571-84.821-11.578-129.686h40.679C511.919,518.205,522.108,539.984,521.194,567.411z"/>
</g>
</svg>
