<svg id="maracas" data-name="Layer 1" xmlns="http://www.w3.org/2000/svg" viewBox="0 0 470.28 598.53"><defs><style>#maracas{height: 100px;}.mAcls-1{fill:#c9a96f;}.mAcls-2{fill:#ce3649;}.mAcls-3,.mAcls-4,.mAcls-5,.mAcls-6,.mAcls-7,.mAcls-9{fill:none;stroke-miterlimit:10;stroke-width:4px;}.mAcls-3{stroke:#f9db03;}.mAcls-4{stroke:#5bd84a;}.mAcls-5{stroke:#3d50d8;}.mAcls-6{stroke:#f189f7;}.mAcls-7{stroke:#ff8224;}.mAcls-8{fill:#fcbd0b;}.mAcls-9{stroke:#ce3649;}</style></defs><title>maracas</title><path class="mAcls-1" d="M272.82,593.87a27.5,27.5,0,0,1-25.63-17.65L147.27,311.89a27.31,27.31,0,0,1,25.48-37,27.51,27.51,0,0,1,25.64,17.66l99.92,264.32a27.31,27.31,0,0,1-25.49,37Z"/><path d="M172.76,272.91v4h0a25.51,25.51,0,0,1,23.76,16.37L296.44,557.6a25.34,25.34,0,0,1-14.74,32.64,25,25,0,0,1-8.88,1.63,25.5,25.5,0,0,1-23.76-16.36L149.14,311.18a25.31,25.31,0,0,1,23.61-34.27v-4m0,0a29,29,0,0,0-10.29,1.89h0a29.41,29.41,0,0,0-17.06,37.8l99.92,264.33a29.43,29.43,0,0,0,27.5,18.94,29.09,29.09,0,0,0,10.3-1.88h0a29.42,29.42,0,0,0,17.06-37.8L200.26,291.86a29.44,29.44,0,0,0-27.51-18.95Z"/><path class="mAcls-2" d="M138.82,309.67c-24.78,0-51-12-74-33.77C41.47,253.69,22.7,222.26,12,187.41c-25.54-83-.27-164.7,56.33-182.11A75.13,75.13,0,0,1,90.42,2c24.78,0,51,12,74,33.78,23.38,22.21,42.15,53.63,52.87,88.48,12.41,40.34,13.32,81.55,2.54,116-10.68,34.22-31.59,57.68-58.87,66.07A75.13,75.13,0,0,1,138.82,309.67Z"/><path d="M90.43,4c24.25,0,50,11.8,72.58,33.23,23.13,22,41.72,53.1,52.34,87.62,12.29,40,13.2,80.74,2.55,114.85-10.49,33.57-30.93,56.57-57.56,64.76a73.12,73.12,0,0,1-21.52,3.21c-24.26,0-50-11.8-72.59-33.22-23.13-22-41.72-53.1-52.34-87.62C1.6,146.87.69,106.08,11.34,72,21.83,38.4,42.27,15.4,68.9,7.21A73.14,73.14,0,0,1,90.43,4h0m0-4a76.86,76.86,0,0,0-22.7,3.39C10,21.15-15.84,103.81,10.06,188,32.63,261.35,87,311.67,138.82,311.67a77.18,77.18,0,0,0,22.7-3.38c57.74-17.77,83.56-100.42,57.65-184.62C196.61,50.32,142.24,0,90.42,0Z"/><path class="mAcls-3" d="M4.6,106.91S59.48-3.2,160.6,34.8"/><path class="mAcls-4" d="M5.66,153.91S73.18,43.8,197.6,81.8"/><path class="mAcls-5" d="M23.6,212.91s68.95-110.11,196-72.11"/><path class="mAcls-6" d="M50.6,257.91s61.92-110.11,176-72.11"/><path class="mAcls-7" d="M86.6,289.8s46.09-74.21,131-48.6"/><path class="mAcls-1" d="M168.11,596.53a27.36,27.36,0,0,1-24.61-39L258.08,316a27.51,27.51,0,0,1,24.78-15.6A26.86,26.86,0,0,1,294.48,303a27.35,27.35,0,0,1,13,36.4L192.88,580.93a27.51,27.51,0,0,1-24.77,15.6Z"/><path d="M282.86,302.36a25.35,25.35,0,0,1,22.79,36.16L191.07,580.07a25.5,25.5,0,0,1-23,14.46,25.35,25.35,0,0,1-22.79-36.16L259.89,316.81a25.5,25.5,0,0,1,23-14.45m0-4a29.41,29.41,0,0,0-26.58,16.74L141.7,556.65a29.4,29.4,0,0,0,13.92,39.06h0a29.09,29.09,0,0,0,12.48,2.82,29.44,29.44,0,0,0,26.59-16.74L309.27,340.24a29.42,29.42,0,0,0-13.93-39.07h0a29.08,29.08,0,0,0-12.48-2.81Z"/><path class="mAcls-8" d="M322.55,338.12a75.85,75.85,0,0,1-28.26-5.35c-55-22-73.52-105.45-41.32-186.1,26.29-65.82,79.7-111.79,129.9-111.79a75.84,75.84,0,0,1,28.25,5.35c55,22,73.53,105.45,41.32,186.1-26.29,65.82-79.7,111.79-129.89,111.79Z"/><path d="M382.86,36.88a73.79,73.79,0,0,1,27.52,5.21c25.87,10.33,44.37,34.92,52.09,69.23,7.84,34.86,3.62,75.44-11.89,114.27-26,65.08-78.64,110.53-128,110.53A73.73,73.73,0,0,1,295,330.91C269.16,320.58,250.66,296,243,261.67c-7.84-34.85-3.62-75.43,11.88-114.26,26-65.08,78.64-110.53,128-110.53m0-4C333,32.88,278.37,77.7,251.12,145.93c-32.67,81.81-13.67,166.29,42.43,188.69a77.73,77.73,0,0,0,29,5.5c49.92,0,104.5-44.82,131.75-113C487,145.26,468,60.78,411.86,38.37a77.88,77.88,0,0,0-29-5.49Z"/><path class="mAcls-9" d="M466.34,146.69S420.61,32.48,316.73,62.12"/><path class="mAcls-4" d="M461.47,193.45S403.13,78.21,276,106"/><path class="mAcls-5" d="M438.78,250.8S379,135.44,249.3,163"/><path class="mAcls-6" d="M408.2,293.45s-52.74-114.79-169.54-86.2"/><path class="mAcls-7" d="M369.73,322.3s-39.9-77.71-126.61-59.1"/></svg>