<svg id="pause_button" xmlns="http://www.w3.org/2000/svg" viewBox="0 0 297 499.98"><defs><style>.cls-1{fill:#fff;}</style></defs><title>pause_button</title><g id="bar_2" data-name="bar 2"><rect class="cls-1" x="3" y="3.07" width="100" height="493.91" rx="9"/><path d="M94,6.07a6,6,0,0,1,6,6V488a6,6,0,0,1-6,6H12a6,6,0,0,1-6-6V12.07a6,6,0,0,1,6-6H94m0-6H12a12,12,0,0,0-12,12V488a12,12,0,0,0,12,12H94a12,12,0,0,0,12-12V12.07a12,12,0,0,0-12-12Z" transform="translate(0 0)"/></g><g id="bar_1" data-name="bar 1"><rect class="cls-1" x="194" y="3" width="100" height="493.91" rx="9"/><path d="M285,6a6,6,0,0,1,6,6V487.91a6,6,0,0,1-6,6H203a6,6,0,0,1-6-6V12a6,6,0,0,1,6-6h82m0-6H203a12,12,0,0,0-12,12V487.91a12,12,0,0,0,12,12h82a12,12,0,0,0,12-12V12A12,12,0,0,0,285,0Z" transform="translate(0 0)"/></g></svg>