<svg id="snare" xmlns="http://www.w3.org/2000/svg" viewBox="0 0 537.93 567.12"><defs><style>.cls-1{fill:#fff8dc;stroke:#ff002b;stroke-width:24px;}.cls-1,.cls-2,.cls-3{stroke-miterlimit:10;}.cls-2{fill:none;stroke-width:19px;}.cls-2,.cls-3{stroke:#000;}.cls-3{fill:#f9ca80;stroke-width:6px;}</style></defs><title>snare</title><circle id="snare_inside" data-name="snare inside" class="cls-1" cx="269.57" cy="273.01" r="231.03"/><circle id="snare_outside" data-name="snare outside" class="cls-2" cx="267.56" cy="273.89" r="245.06"/><rect id="small_circle_8" data-name="small circle 8" x="71.99" y="75.22" width="32.21" height="32.21" rx="14.84" transform="translate(-33.86 56.29) rotate(-30)"/><rect id="small_circle_7" data-name="small circle 7" x="251.46" y="0.06" width="32.21" height="32.21" rx="14.84" transform="translate(1.04 -12.43) rotate(2.67)"/><rect id="small_circle_6" data-name="small circle 6" x="429.04" y="75.22" width="32.21" height="32.21" rx="14.84" transform="translate(13.97 234.81) rotate(-30)"/><rect id="small_circle_5" data-name="small circle 5" x="0.23" y="257.67" width="32.21" height="32.21" rx="14.84" transform="translate(-53.04 8.43) rotate(-11.24)"/><rect id="small_circle_4" data-name="small circle 4" x="71.99" y="445.61" width="32.21" height="32.21" rx="14.84" transform="matrix(0.87, -0.5, 0.5, 0.87, -219.05, 105.91)"/><rect id="small_circle_3" data-name="small circle 3" x="251.46" y="514.43" width="32.21" height="32.21" rx="14.84"/><rect id="small_circle_2" data-name="small circle 2" x="427.77" y="443.54" width="32.21" height="32.21" rx="14.84"/><rect id="small_circle_1" data-name="small circle 1" x="505.49" y="255.82" width="32.21" height="32.21" rx="14.84" transform="translate(-43 106.87) rotate(-11.24)"/><rect class="cls-3" x="171.8" y="212.86" width="29.78" height="335.52" rx="14.89" transform="translate(323.82 -20.53) rotate(45)"/><rect class="cls-3" x="181.29" y="273.39" width="29.78" height="335.52" rx="14.89" transform="translate(369.4 -9.51) rotate(45)"/></svg>